<?xml version="1.0" encoding="utf-8"?>
<!DOCTYPE svg PUBLIC "-//W3C//DTD SVG 1.0//EN" "http://www.w3.org/TR/2001/REC-SVG-20010904/DTD/svg10.dtd">
<svg xmlns="http://www.w3.org/2000/svg" xml:space="preserve" xmlns:xlink="http://www.w3.org/1999/xlink" width="1020" height="1020" viewBox="0 0 1020 1020">
<desc></desc>
<rect width="1020" height="1020" fill="#ffffff" cx="0" cy="0" />
<defs>
<rect id="p" width="20" height="20" />
</defs>
<g fill="#c0392b">
<use x="100" y="100" xlink:href="#p" />
<use x="120" y="100" xlink:href="#p" />
<use x="140" y="100" xlink:href="#p" />
<use x="160" y="100" xlink:href="#p" />
<use x="180" y="100" xlink:href="#p" />
<use x="200" y="100" xlink:href="#p" />
<use x="220" y="100" xlink:href="#p" />
<use x="320" y="100" xlink:href="#p" />
<use x="420" y="100" xlink:href="#p" />
<use x="440" y="100" xlink:href="#p" />
<use x="460" y="100" xlink:href="#p" />
<use x="480" y="100" xlink:href="#p" />
<use x="520" y="100" xlink:href="#p" />
<use x="560" y="100" xlink:href="#p" />
<use x="660" y="100" xlink:href="#p" />
<use x="720" y="100" xlink:href="#p" />
<use x="780" y="100" xlink:href="#p" />
<use x="800" y="100" xlink:href="#p" />
<use x="820" y="100" xlink:href="#p" />
<use x="840" y="100" xlink:href="#p" />
<use x="860" y="100" xlink:href="#p" />
<use x="880" y="100" xlink:href="#p" />
<use x="900" y="100" xlink:href="#p" />
<use x="100" y="120" xlink:href="#p" />
<use x="220" y="120" xlink:href="#p" />
<use x="260" y="120" xlink:href="#p" />
<use x="280" y="120" xlink:href="#p" />
<use x="300" y="120" xlink:href="#p" />
<use x="360" y="120" xlink:href="#p" />
<use x="440" y="120" xlink:href="#p" />
<use x="460" y="120" xlink:href="#p" />
<use x="540" y="120" xlink:href="#p" />
<use x="560" y="120" xlink:href="#p" />
<use x="700" y="120" xlink:href="#p" />
<use x="780" y="120" xlink:href="#p" />
<use x="900" y="120" xlink:href="#p" />
<use x="100" y="140" xlink:href="#p" />
<use x="140" y="140" xlink:href="#p" />
<use x="160" y="140" xlink:href="#p" />
<use x="180" y="140" xlink:href="#p" />
<use x="220" y="140" xlink:href="#p" />
<use x="280" y="140" xlink:href="#p" />
<use x="320" y="140" xlink:href="#p" />
<use x="360" y="140" xlink:href="#p" />
<use x="380" y="140" xlink:href="#p" />
<use x="420" y="140" xlink:href="#p" />
<use x="440" y="140" xlink:href="#p" />
<use x="460" y="140" xlink:href="#p" />
<use x="480" y="140" xlink:href="#p" />
<use x="500" y="140" xlink:href="#p" />
<use x="560" y="140" xlink:href="#p" />
<use x="600" y="140" xlink:href="#p" />
<use x="660" y="140" xlink:href="#p" />
<use x="680" y="140" xlink:href="#p" />
<use x="700" y="140" xlink:href="#p" />
<use x="720" y="140" xlink:href="#p" />
<use x="780" y="140" xlink:href="#p" />
<use x="820" y="140" xlink:href="#p" />
<use x="840" y="140" xlink:href="#p" />
<use x="860" y="140" xlink:href="#p" />
<use x="900" y="140" xlink:href="#p" />
<use x="100" y="160" xlink:href="#p" />
<use x="140" y="160" xlink:href="#p" />
<use x="160" y="160" xlink:href="#p" />
<use x="180" y="160" xlink:href="#p" />
<use x="220" y="160" xlink:href="#p" />
<use x="280" y="160" xlink:href="#p" />
<use x="300" y="160" xlink:href="#p" />
<use x="440" y="160" xlink:href="#p" />
<use x="460" y="160" xlink:href="#p" />
<use x="480" y="160" xlink:href="#p" />
<use x="520" y="160" xlink:href="#p" />
<use x="580" y="160" xlink:href="#p" />
<use x="620" y="160" xlink:href="#p" />
<use x="680" y="160" xlink:href="#p" />
<use x="720" y="160" xlink:href="#p" />
<use x="740" y="160" xlink:href="#p" />
<use x="780" y="160" xlink:href="#p" />
<use x="820" y="160" xlink:href="#p" />
<use x="840" y="160" xlink:href="#p" />
<use x="860" y="160" xlink:href="#p" />
<use x="900" y="160" xlink:href="#p" />
<use x="100" y="180" xlink:href="#p" />
<use x="140" y="180" xlink:href="#p" />
<use x="160" y="180" xlink:href="#p" />
<use x="180" y="180" xlink:href="#p" />
<use x="220" y="180" xlink:href="#p" />
<use x="280" y="180" xlink:href="#p" />
<use x="300" y="180" xlink:href="#p" />
<use x="320" y="180" xlink:href="#p" />
<use x="360" y="180" xlink:href="#p" />
<use x="380" y="180" xlink:href="#p" />
<use x="400" y="180" xlink:href="#p" />
<use x="420" y="180" xlink:href="#p" />
<use x="440" y="180" xlink:href="#p" />
<use x="480" y="180" xlink:href="#p" />
<use x="540" y="180" xlink:href="#p" />
<use x="560" y="180" xlink:href="#p" />
<use x="600" y="180" xlink:href="#p" />
<use x="620" y="180" xlink:href="#p" />
<use x="660" y="180" xlink:href="#p" />
<use x="680" y="180" xlink:href="#p" />
<use x="720" y="180" xlink:href="#p" />
<use x="780" y="180" xlink:href="#p" />
<use x="820" y="180" xlink:href="#p" />
<use x="840" y="180" xlink:href="#p" />
<use x="860" y="180" xlink:href="#p" />
<use x="900" y="180" xlink:href="#p" />
<use x="100" y="200" xlink:href="#p" />
<use x="220" y="200" xlink:href="#p" />
<use x="260" y="200" xlink:href="#p" />
<use x="280" y="200" xlink:href="#p" />
<use x="320" y="200" xlink:href="#p" />
<use x="340" y="200" xlink:href="#p" />
<use x="420" y="200" xlink:href="#p" />
<use x="440" y="200" xlink:href="#p" />
<use x="500" y="200" xlink:href="#p" />
<use x="540" y="200" xlink:href="#p" />
<use x="560" y="200" xlink:href="#p" />
<use x="580" y="200" xlink:href="#p" />
<use x="620" y="200" xlink:href="#p" />
<use x="640" y="200" xlink:href="#p" />
<use x="660" y="200" xlink:href="#p" />
<use x="680" y="200" xlink:href="#p" />
<use x="740" y="200" xlink:href="#p" />
<use x="780" y="200" xlink:href="#p" />
<use x="900" y="200" xlink:href="#p" />
<use x="100" y="220" xlink:href="#p" />
<use x="120" y="220" xlink:href="#p" />
<use x="140" y="220" xlink:href="#p" />
<use x="160" y="220" xlink:href="#p" />
<use x="180" y="220" xlink:href="#p" />
<use x="200" y="220" xlink:href="#p" />
<use x="220" y="220" xlink:href="#p" />
<use x="260" y="220" xlink:href="#p" />
<use x="300" y="220" xlink:href="#p" />
<use x="340" y="220" xlink:href="#p" />
<use x="380" y="220" xlink:href="#p" />
<use x="420" y="220" xlink:href="#p" />
<use x="460" y="220" xlink:href="#p" />
<use x="500" y="220" xlink:href="#p" />
<use x="540" y="220" xlink:href="#p" />
<use x="580" y="220" xlink:href="#p" />
<use x="620" y="220" xlink:href="#p" />
<use x="660" y="220" xlink:href="#p" />
<use x="700" y="220" xlink:href="#p" />
<use x="740" y="220" xlink:href="#p" />
<use x="780" y="220" xlink:href="#p" />
<use x="800" y="220" xlink:href="#p" />
<use x="820" y="220" xlink:href="#p" />
<use x="840" y="220" xlink:href="#p" />
<use x="860" y="220" xlink:href="#p" />
<use x="880" y="220" xlink:href="#p" />
<use x="900" y="220" xlink:href="#p" />
<use x="260" y="240" xlink:href="#p" />
<use x="300" y="240" xlink:href="#p" />
<use x="380" y="240" xlink:href="#p" />
<use x="480" y="240" xlink:href="#p" />
<use x="540" y="240" xlink:href="#p" />
<use x="560" y="240" xlink:href="#p" />
<use x="580" y="240" xlink:href="#p" />
<use x="660" y="240" xlink:href="#p" />
<use x="680" y="240" xlink:href="#p" />
<use x="700" y="240" xlink:href="#p" />
<use x="720" y="240" xlink:href="#p" />
<use x="740" y="240" xlink:href="#p" />
<use x="180" y="260" xlink:href="#p" />
<use x="200" y="260" xlink:href="#p" />
<use x="220" y="260" xlink:href="#p" />
<use x="240" y="260" xlink:href="#p" />
<use x="280" y="260" xlink:href="#p" />
<use x="300" y="260" xlink:href="#p" />
<use x="360" y="260" xlink:href="#p" />
<use x="380" y="260" xlink:href="#p" />
<use x="440" y="260" xlink:href="#p" />
<use x="460" y="260" xlink:href="#p" />
<use x="500" y="260" xlink:href="#p" />
<use x="520" y="260" xlink:href="#p" />
<use x="540" y="260" xlink:href="#p" />
<use x="600" y="260" xlink:href="#p" />
<use x="620" y="260" xlink:href="#p" />
<use x="640" y="260" xlink:href="#p" />
<use x="680" y="260" xlink:href="#p" />
<use x="720" y="260" xlink:href="#p" />
<use x="740" y="260" xlink:href="#p" />
<use x="780" y="260" xlink:href="#p" />
<use x="800" y="260" xlink:href="#p" />
<use x="880" y="260" xlink:href="#p" />
<use x="200" y="280" xlink:href="#p" />
<use x="280" y="280" xlink:href="#p" />
<use x="300" y="280" xlink:href="#p" />
<use x="360" y="280" xlink:href="#p" />
<use x="380" y="280" xlink:href="#p" />
<use x="500" y="280" xlink:href="#p" />
<use x="520" y="280" xlink:href="#p" />
<use x="540" y="280" xlink:href="#p" />
<use x="560" y="280" xlink:href="#p" />
<use x="580" y="280" xlink:href="#p" />
<use x="620" y="280" xlink:href="#p" />
<use x="640" y="280" xlink:href="#p" />
<use x="660" y="280" xlink:href="#p" />
<use x="680" y="280" xlink:href="#p" />
<use x="700" y="280" xlink:href="#p" />
<use x="760" y="280" xlink:href="#p" />
<use x="800" y="280" xlink:href="#p" />
<use x="840" y="280" xlink:href="#p" />
<use x="880" y="280" xlink:href="#p" />
<use x="120" y="300" xlink:href="#p" />
<use x="180" y="300" xlink:href="#p" />
<use x="220" y="300" xlink:href="#p" />
<use x="240" y="300" xlink:href="#p" />
<use x="260" y="300" xlink:href="#p" />
<use x="280" y="300" xlink:href="#p" />
<use x="300" y="300" xlink:href="#p" />
<use x="340" y="300" xlink:href="#p" />
<use x="360" y="300" xlink:href="#p" />
<use x="380" y="300" xlink:href="#p" />
<use x="440" y="300" xlink:href="#p" />
<use x="460" y="300" xlink:href="#p" />
<use x="480" y="300" xlink:href="#p" />
<use x="520" y="300" xlink:href="#p" />
<use x="560" y="300" xlink:href="#p" />
<use x="580" y="300" xlink:href="#p" />
<use x="620" y="300" xlink:href="#p" />
<use x="640" y="300" xlink:href="#p" />
<use x="660" y="300" xlink:href="#p" />
<use x="680" y="300" xlink:href="#p" />
<use x="700" y="300" xlink:href="#p" />
<use x="820" y="300" xlink:href="#p" />
<use x="140" y="320" xlink:href="#p" />
<use x="160" y="320" xlink:href="#p" />
<use x="200" y="320" xlink:href="#p" />
<use x="260" y="320" xlink:href="#p" />
<use x="340" y="320" xlink:href="#p" />
<use x="360" y="320" xlink:href="#p" />
<use x="400" y="320" xlink:href="#p" />
<use x="420" y="320" xlink:href="#p" />
<use x="440" y="320" xlink:href="#p" />
<use x="580" y="320" xlink:href="#p" />
<use x="640" y="320" xlink:href="#p" />
<use x="660" y="320" xlink:href="#p" />
<use x="700" y="320" xlink:href="#p" />
<use x="740" y="320" xlink:href="#p" />
<use x="760" y="320" xlink:href="#p" />
<use x="780" y="320" xlink:href="#p" />
<use x="800" y="320" xlink:href="#p" />
<use x="820" y="320" xlink:href="#p" />
<use x="840" y="320" xlink:href="#p" />
<use x="880" y="320" xlink:href="#p" />
<use x="900" y="320" xlink:href="#p" />
<use x="100" y="340" xlink:href="#p" />
<use x="120" y="340" xlink:href="#p" />
<use x="160" y="340" xlink:href="#p" />
<use x="180" y="340" xlink:href="#p" />
<use x="220" y="340" xlink:href="#p" />
<use x="240" y="340" xlink:href="#p" />
<use x="280" y="340" xlink:href="#p" />
<use x="320" y="340" xlink:href="#p" />
<use x="340" y="340" xlink:href="#p" />
<use x="360" y="340" xlink:href="#p" />
<use x="400" y="340" xlink:href="#p" />
<use x="440" y="340" xlink:href="#p" />
<use x="460" y="340" xlink:href="#p" />
<use x="500" y="340" xlink:href="#p" />
<use x="520" y="340" xlink:href="#p" />
<use x="640" y="340" xlink:href="#p" />
<use x="660" y="340" xlink:href="#p" />
<use x="740" y="340" xlink:href="#p" />
<use x="760" y="340" xlink:href="#p" />
<use x="780" y="340" xlink:href="#p" />
<use x="800" y="340" xlink:href="#p" />
<use x="880" y="340" xlink:href="#p" />
<use x="900" y="340" xlink:href="#p" />
<use x="100" y="360" xlink:href="#p" />
<use x="140" y="360" xlink:href="#p" />
<use x="160" y="360" xlink:href="#p" />
<use x="260" y="360" xlink:href="#p" />
<use x="300" y="360" xlink:href="#p" />
<use x="340" y="360" xlink:href="#p" />
<use x="360" y="360" xlink:href="#p" />
<use x="380" y="360" xlink:href="#p" />
<use x="400" y="360" xlink:href="#p" />
<use x="460" y="360" xlink:href="#p" />
<use x="620" y="360" xlink:href="#p" />
<use x="680" y="360" xlink:href="#p" />
<use x="720" y="360" xlink:href="#p" />
<use x="820" y="360" xlink:href="#p" />
<use x="860" y="360" xlink:href="#p" />
<use x="120" y="380" xlink:href="#p" />
<use x="140" y="380" xlink:href="#p" />
<use x="180" y="380" xlink:href="#p" />
<use x="220" y="380" xlink:href="#p" />
<use x="240" y="380" xlink:href="#p" />
<use x="260" y="380" xlink:href="#p" />
<use x="280" y="380" xlink:href="#p" />
<use x="360" y="380" xlink:href="#p" />
<use x="420" y="380" xlink:href="#p" />
<use x="460" y="380" xlink:href="#p" />
<use x="500" y="380" xlink:href="#p" />
<use x="520" y="380" xlink:href="#p" />
<use x="560" y="380" xlink:href="#p" />
<use x="600" y="380" xlink:href="#p" />
<use x="640" y="380" xlink:href="#p" />
<use x="680" y="380" xlink:href="#p" />
<use x="700" y="380" xlink:href="#p" />
<use x="720" y="380" xlink:href="#p" />
<use x="760" y="380" xlink:href="#p" />
<use x="800" y="380" xlink:href="#p" />
<use x="820" y="380" xlink:href="#p" />
<use x="880" y="380" xlink:href="#p" />
<use x="900" y="380" xlink:href="#p" />
<use x="100" y="400" xlink:href="#p" />
<use x="200" y="400" xlink:href="#p" />
<use x="260" y="400" xlink:href="#p" />
<use x="280" y="400" xlink:href="#p" />
<use x="300" y="400" xlink:href="#p" />
<use x="340" y="400" xlink:href="#p" />
<use x="380" y="400" xlink:href="#p" />
<use x="400" y="400" xlink:href="#p" />
<use x="420" y="400" xlink:href="#p" />
<use x="460" y="400" xlink:href="#p" />
<use x="540" y="400" xlink:href="#p" />
<use x="560" y="400" xlink:href="#p" />
<use x="600" y="400" xlink:href="#p" />
<use x="620" y="400" xlink:href="#p" />
<use x="640" y="400" xlink:href="#p" />
<use x="660" y="400" xlink:href="#p" />
<use x="720" y="400" xlink:href="#p" />
<use x="740" y="400" xlink:href="#p" />
<use x="760" y="400" xlink:href="#p" />
<use x="800" y="400" xlink:href="#p" />
<use x="820" y="400" xlink:href="#p" />
<use x="900" y="400" xlink:href="#p" />
<use x="100" y="420" xlink:href="#p" />
<use x="140" y="420" xlink:href="#p" />
<use x="160" y="420" xlink:href="#p" />
<use x="180" y="420" xlink:href="#p" />
<use x="220" y="420" xlink:href="#p" />
<use x="240" y="420" xlink:href="#p" />
<use x="280" y="420" xlink:href="#p" />
<use x="300" y="420" xlink:href="#p" />
<use x="320" y="420" xlink:href="#p" />
<use x="360" y="420" xlink:href="#p" />
<use x="380" y="420" xlink:href="#p" />
<use x="420" y="420" xlink:href="#p" />
<use x="540" y="420" xlink:href="#p" />
<use x="560" y="420" xlink:href="#p" />
<use x="580" y="420" xlink:href="#p" />
<use x="660" y="420" xlink:href="#p" />
<use x="700" y="420" xlink:href="#p" />
<use x="800" y="420" xlink:href="#p" />
<use x="840" y="420" xlink:href="#p" />
<use x="880" y="420" xlink:href="#p" />
<use x="900" y="420" xlink:href="#p" />
<use x="140" y="440" xlink:href="#p" />
<use x="200" y="440" xlink:href="#p" />
<use x="260" y="440" xlink:href="#p" />
<use x="280" y="440" xlink:href="#p" />
<use x="320" y="440" xlink:href="#p" />
<use x="340" y="440" xlink:href="#p" />
<use x="480" y="440" xlink:href="#p" />
<use x="520" y="440" xlink:href="#p" />
<use x="600" y="440" xlink:href="#p" />
<use x="660" y="440" xlink:href="#p" />
<use x="680" y="440" xlink:href="#p" />
<use x="720" y="440" xlink:href="#p" />
<use x="740" y="440" xlink:href="#p" />
<use x="780" y="440" xlink:href="#p" />
<use x="820" y="440" xlink:href="#p" />
<use x="840" y="440" xlink:href="#p" />
<use x="880" y="440" xlink:href="#p" />
<use x="900" y="440" xlink:href="#p" />
<use x="100" y="460" xlink:href="#p" />
<use x="180" y="460" xlink:href="#p" />
<use x="220" y="460" xlink:href="#p" />
<use x="240" y="460" xlink:href="#p" />
<use x="260" y="460" xlink:href="#p" />
<use x="280" y="460" xlink:href="#p" />
<use x="320" y="460" xlink:href="#p" />
<use x="360" y="460" xlink:href="#p" />
<use x="500" y="460" xlink:href="#p" />
<use x="520" y="460" xlink:href="#p" />
<use x="560" y="460" xlink:href="#p" />
<use x="580" y="460" xlink:href="#p" />
<use x="640" y="460" xlink:href="#p" />
<use x="700" y="460" xlink:href="#p" />
<use x="740" y="460" xlink:href="#p" />
<use x="760" y="460" xlink:href="#p" />
<use x="800" y="460" xlink:href="#p" />
<use x="840" y="460" xlink:href="#p" />
<use x="860" y="460" xlink:href="#p" />
<use x="900" y="460" xlink:href="#p" />
<use x="100" y="480" xlink:href="#p" />
<use x="180" y="480" xlink:href="#p" />
<use x="200" y="480" xlink:href="#p" />
<use x="300" y="480" xlink:href="#p" />
<use x="340" y="480" xlink:href="#p" />
<use x="400" y="480" xlink:href="#p" />
<use x="420" y="480" xlink:href="#p" />
<use x="500" y="480" xlink:href="#p" />
<use x="520" y="480" xlink:href="#p" />
<use x="580" y="480" xlink:href="#p" />
<use x="600" y="480" xlink:href="#p" />
<use x="620" y="480" xlink:href="#p" />
<use x="660" y="480" xlink:href="#p" />
<use x="720" y="480" xlink:href="#p" />
<use x="760" y="480" xlink:href="#p" />
<use x="800" y="480" xlink:href="#p" />
<use x="840" y="480" xlink:href="#p" />
<use x="860" y="480" xlink:href="#p" />
<use x="100" y="500" xlink:href="#p" />
<use x="140" y="500" xlink:href="#p" />
<use x="160" y="500" xlink:href="#p" />
<use x="180" y="500" xlink:href="#p" />
<use x="200" y="500" xlink:href="#p" />
<use x="220" y="500" xlink:href="#p" />
<use x="240" y="500" xlink:href="#p" />
<use x="280" y="500" xlink:href="#p" />
<use x="360" y="500" xlink:href="#p" />
<use x="380" y="500" xlink:href="#p" />
<use x="400" y="500" xlink:href="#p" />
<use x="440" y="500" xlink:href="#p" />
<use x="460" y="500" xlink:href="#p" />
<use x="480" y="500" xlink:href="#p" />
<use x="520" y="500" xlink:href="#p" />
<use x="540" y="500" xlink:href="#p" />
<use x="620" y="500" xlink:href="#p" />
<use x="640" y="500" xlink:href="#p" />
<use x="660" y="500" xlink:href="#p" />
<use x="740" y="500" xlink:href="#p" />
<use x="820" y="500" xlink:href="#p" />
<use x="860" y="500" xlink:href="#p" />
<use x="160" y="520" xlink:href="#p" />
<use x="180" y="520" xlink:href="#p" />
<use x="280" y="520" xlink:href="#p" />
<use x="300" y="520" xlink:href="#p" />
<use x="400" y="520" xlink:href="#p" />
<use x="440" y="520" xlink:href="#p" />
<use x="460" y="520" xlink:href="#p" />
<use x="560" y="520" xlink:href="#p" />
<use x="600" y="520" xlink:href="#p" />
<use x="620" y="520" xlink:href="#p" />
<use x="700" y="520" xlink:href="#p" />
<use x="720" y="520" xlink:href="#p" />
<use x="740" y="520" xlink:href="#p" />
<use x="800" y="520" xlink:href="#p" />
<use x="820" y="520" xlink:href="#p" />
<use x="900" y="520" xlink:href="#p" />
<use x="120" y="540" xlink:href="#p" />
<use x="180" y="540" xlink:href="#p" />
<use x="200" y="540" xlink:href="#p" />
<use x="220" y="540" xlink:href="#p" />
<use x="240" y="540" xlink:href="#p" />
<use x="280" y="540" xlink:href="#p" />
<use x="300" y="540" xlink:href="#p" />
<use x="340" y="540" xlink:href="#p" />
<use x="380" y="540" xlink:href="#p" />
<use x="520" y="540" xlink:href="#p" />
<use x="540" y="540" xlink:href="#p" />
<use x="560" y="540" xlink:href="#p" />
<use x="580" y="540" xlink:href="#p" />
<use x="600" y="540" xlink:href="#p" />
<use x="620" y="540" xlink:href="#p" />
<use x="660" y="540" xlink:href="#p" />
<use x="740" y="540" xlink:href="#p" />
<use x="760" y="540" xlink:href="#p" />
<use x="820" y="540" xlink:href="#p" />
<use x="840" y="540" xlink:href="#p" />
<use x="900" y="540" xlink:href="#p" />
<use x="120" y="560" xlink:href="#p" />
<use x="140" y="560" xlink:href="#p" />
<use x="160" y="560" xlink:href="#p" />
<use x="180" y="560" xlink:href="#p" />
<use x="400" y="560" xlink:href="#p" />
<use x="420" y="560" xlink:href="#p" />
<use x="460" y="560" xlink:href="#p" />
<use x="480" y="560" xlink:href="#p" />
<use x="500" y="560" xlink:href="#p" />
<use x="520" y="560" xlink:href="#p" />
<use x="540" y="560" xlink:href="#p" />
<use x="580" y="560" xlink:href="#p" />
<use x="620" y="560" xlink:href="#p" />
<use x="640" y="560" xlink:href="#p" />
<use x="680" y="560" xlink:href="#p" />
<use x="700" y="560" xlink:href="#p" />
<use x="740" y="560" xlink:href="#p" />
<use x="780" y="560" xlink:href="#p" />
<use x="800" y="560" xlink:href="#p" />
<use x="820" y="560" xlink:href="#p" />
<use x="840" y="560" xlink:href="#p" />
<use x="880" y="560" xlink:href="#p" />
<use x="900" y="560" xlink:href="#p" />
<use x="120" y="580" xlink:href="#p" />
<use x="160" y="580" xlink:href="#p" />
<use x="180" y="580" xlink:href="#p" />
<use x="200" y="580" xlink:href="#p" />
<use x="220" y="580" xlink:href="#p" />
<use x="240" y="580" xlink:href="#p" />
<use x="320" y="580" xlink:href="#p" />
<use x="340" y="580" xlink:href="#p" />
<use x="360" y="580" xlink:href="#p" />
<use x="400" y="580" xlink:href="#p" />
<use x="460" y="580" xlink:href="#p" />
<use x="520" y="580" xlink:href="#p" />
<use x="580" y="580" xlink:href="#p" />
<use x="620" y="580" xlink:href="#p" />
<use x="640" y="580" xlink:href="#p" />
<use x="680" y="580" xlink:href="#p" />
<use x="740" y="580" xlink:href="#p" />
<use x="760" y="580" xlink:href="#p" />
<use x="780" y="580" xlink:href="#p" />
<use x="800" y="580" xlink:href="#p" />
<use x="820" y="580" xlink:href="#p" />
<use x="860" y="580" xlink:href="#p" />
<use x="160" y="600" xlink:href="#p" />
<use x="180" y="600" xlink:href="#p" />
<use x="240" y="600" xlink:href="#p" />
<use x="280" y="600" xlink:href="#p" />
<use x="300" y="600" xlink:href="#p" />
<use x="380" y="600" xlink:href="#p" />
<use x="400" y="600" xlink:href="#p" />
<use x="420" y="600" xlink:href="#p" />
<use x="440" y="600" xlink:href="#p" />
<use x="500" y="600" xlink:href="#p" />
<use x="540" y="600" xlink:href="#p" />
<use x="620" y="600" xlink:href="#p" />
<use x="640" y="600" xlink:href="#p" />
<use x="660" y="600" xlink:href="#p" />
<use x="680" y="600" xlink:href="#p" />
<use x="700" y="600" xlink:href="#p" />
<use x="820" y="600" xlink:href="#p" />
<use x="860" y="600" xlink:href="#p" />
<use x="880" y="600" xlink:href="#p" />
<use x="100" y="620" xlink:href="#p" />
<use x="120" y="620" xlink:href="#p" />
<use x="200" y="620" xlink:href="#p" />
<use x="220" y="620" xlink:href="#p" />
<use x="280" y="620" xlink:href="#p" />
<use x="340" y="620" xlink:href="#p" />
<use x="360" y="620" xlink:href="#p" />
<use x="400" y="620" xlink:href="#p" />
<use x="540" y="620" xlink:href="#p" />
<use x="580" y="620" xlink:href="#p" />
<use x="600" y="620" xlink:href="#p" />
<use x="640" y="620" xlink:href="#p" />
<use x="660" y="620" xlink:href="#p" />
<use x="680" y="620" xlink:href="#p" />
<use x="740" y="620" xlink:href="#p" />
<use x="820" y="620" xlink:href="#p" />
<use x="880" y="620" xlink:href="#p" />
<use x="900" y="620" xlink:href="#p" />
<use x="120" y="640" xlink:href="#p" />
<use x="140" y="640" xlink:href="#p" />
<use x="160" y="640" xlink:href="#p" />
<use x="180" y="640" xlink:href="#p" />
<use x="260" y="640" xlink:href="#p" />
<use x="320" y="640" xlink:href="#p" />
<use x="340" y="640" xlink:href="#p" />
<use x="400" y="640" xlink:href="#p" />
<use x="420" y="640" xlink:href="#p" />
<use x="600" y="640" xlink:href="#p" />
<use x="640" y="640" xlink:href="#p" />
<use x="680" y="640" xlink:href="#p" />
<use x="700" y="640" xlink:href="#p" />
<use x="720" y="640" xlink:href="#p" />
<use x="740" y="640" xlink:href="#p" />
<use x="760" y="640" xlink:href="#p" />
<use x="800" y="640" xlink:href="#p" />
<use x="820" y="640" xlink:href="#p" />
<use x="840" y="640" xlink:href="#p" />
<use x="880" y="640" xlink:href="#p" />
<use x="900" y="640" xlink:href="#p" />
<use x="100" y="660" xlink:href="#p" />
<use x="140" y="660" xlink:href="#p" />
<use x="220" y="660" xlink:href="#p" />
<use x="240" y="660" xlink:href="#p" />
<use x="340" y="660" xlink:href="#p" />
<use x="380" y="660" xlink:href="#p" />
<use x="400" y="660" xlink:href="#p" />
<use x="440" y="660" xlink:href="#p" />
<use x="460" y="660" xlink:href="#p" />
<use x="480" y="660" xlink:href="#p" />
<use x="540" y="660" xlink:href="#p" />
<use x="560" y="660" xlink:href="#p" />
<use x="580" y="660" xlink:href="#p" />
<use x="600" y="660" xlink:href="#p" />
<use x="640" y="660" xlink:href="#p" />
<use x="740" y="660" xlink:href="#p" />
<use x="760" y="660" xlink:href="#p" />
<use x="800" y="660" xlink:href="#p" />
<use x="880" y="660" xlink:href="#p" />
<use x="900" y="660" xlink:href="#p" />
<use x="100" y="680" xlink:href="#p" />
<use x="160" y="680" xlink:href="#p" />
<use x="200" y="680" xlink:href="#p" />
<use x="280" y="680" xlink:href="#p" />
<use x="340" y="680" xlink:href="#p" />
<use x="360" y="680" xlink:href="#p" />
<use x="480" y="680" xlink:href="#p" />
<use x="520" y="680" xlink:href="#p" />
<use x="620" y="680" xlink:href="#p" />
<use x="660" y="680" xlink:href="#p" />
<use x="680" y="680" xlink:href="#p" />
<use x="720" y="680" xlink:href="#p" />
<use x="740" y="680" xlink:href="#p" />
<use x="840" y="680" xlink:href="#p" />
<use x="860" y="680" xlink:href="#p" />
<use x="880" y="680" xlink:href="#p" />
<use x="220" y="700" xlink:href="#p" />
<use x="280" y="700" xlink:href="#p" />
<use x="300" y="700" xlink:href="#p" />
<use x="320" y="700" xlink:href="#p" />
<use x="360" y="700" xlink:href="#p" />
<use x="380" y="700" xlink:href="#p" />
<use x="480" y="700" xlink:href="#p" />
<use x="520" y="700" xlink:href="#p" />
<use x="560" y="700" xlink:href="#p" />
<use x="580" y="700" xlink:href="#p" />
<use x="600" y="700" xlink:href="#p" />
<use x="660" y="700" xlink:href="#p" />
<use x="680" y="700" xlink:href="#p" />
<use x="820" y="700" xlink:href="#p" />
<use x="140" y="720" xlink:href="#p" />
<use x="180" y="720" xlink:href="#p" />
<use x="260" y="720" xlink:href="#p" />
<use x="280" y="720" xlink:href="#p" />
<use x="340" y="720" xlink:href="#p" />
<use x="360" y="720" xlink:href="#p" />
<use x="380" y="720" xlink:href="#p" />
<use x="420" y="720" xlink:href="#p" />
<use x="440" y="720" xlink:href="#p" />
<use x="460" y="720" xlink:href="#p" />
<use x="480" y="720" xlink:href="#p" />
<use x="500" y="720" xlink:href="#p" />
<use x="540" y="720" xlink:href="#p" />
<use x="580" y="720" xlink:href="#p" />
<use x="620" y="720" xlink:href="#p" />
<use x="680" y="720" xlink:href="#p" />
<use x="700" y="720" xlink:href="#p" />
<use x="100" y="740" xlink:href="#p" />
<use x="120" y="740" xlink:href="#p" />
<use x="140" y="740" xlink:href="#p" />
<use x="220" y="740" xlink:href="#p" />
<use x="240" y="740" xlink:href="#p" />
<use x="340" y="740" xlink:href="#p" />
<use x="360" y="740" xlink:href="#p" />
<use x="380" y="740" xlink:href="#p" />
<use x="420" y="740" xlink:href="#p" />
<use x="440" y="740" xlink:href="#p" />
<use x="460" y="740" xlink:href="#p" />
<use x="540" y="740" xlink:href="#p" />
<use x="580" y="740" xlink:href="#p" />
<use x="620" y="740" xlink:href="#p" />
<use x="640" y="740" xlink:href="#p" />
<use x="720" y="740" xlink:href="#p" />
<use x="740" y="740" xlink:href="#p" />
<use x="760" y="740" xlink:href="#p" />
<use x="780" y="740" xlink:href="#p" />
<use x="800" y="740" xlink:href="#p" />
<use x="820" y="740" xlink:href="#p" />
<use x="900" y="740" xlink:href="#p" />
<use x="260" y="760" xlink:href="#p" />
<use x="280" y="760" xlink:href="#p" />
<use x="300" y="760" xlink:href="#p" />
<use x="340" y="760" xlink:href="#p" />
<use x="360" y="760" xlink:href="#p" />
<use x="400" y="760" xlink:href="#p" />
<use x="440" y="760" xlink:href="#p" />
<use x="500" y="760" xlink:href="#p" />
<use x="660" y="760" xlink:href="#p" />
<use x="740" y="760" xlink:href="#p" />
<use x="820" y="760" xlink:href="#p" />
<use x="840" y="760" xlink:href="#p" />
<use x="880" y="760" xlink:href="#p" />
<use x="900" y="760" xlink:href="#p" />
<use x="100" y="780" xlink:href="#p" />
<use x="120" y="780" xlink:href="#p" />
<use x="140" y="780" xlink:href="#p" />
<use x="160" y="780" xlink:href="#p" />
<use x="180" y="780" xlink:href="#p" />
<use x="200" y="780" xlink:href="#p" />
<use x="220" y="780" xlink:href="#p" />
<use x="260" y="780" xlink:href="#p" />
<use x="300" y="780" xlink:href="#p" />
<use x="420" y="780" xlink:href="#p" />
<use x="480" y="780" xlink:href="#p" />
<use x="500" y="780" xlink:href="#p" />
<use x="520" y="780" xlink:href="#p" />
<use x="560" y="780" xlink:href="#p" />
<use x="580" y="780" xlink:href="#p" />
<use x="600" y="780" xlink:href="#p" />
<use x="640" y="780" xlink:href="#p" />
<use x="680" y="780" xlink:href="#p" />
<use x="740" y="780" xlink:href="#p" />
<use x="780" y="780" xlink:href="#p" />
<use x="820" y="780" xlink:href="#p" />
<use x="900" y="780" xlink:href="#p" />
<use x="100" y="800" xlink:href="#p" />
<use x="220" y="800" xlink:href="#p" />
<use x="260" y="800" xlink:href="#p" />
<use x="380" y="800" xlink:href="#p" />
<use x="440" y="800" xlink:href="#p" />
<use x="460" y="800" xlink:href="#p" />
<use x="480" y="800" xlink:href="#p" />
<use x="520" y="800" xlink:href="#p" />
<use x="540" y="800" xlink:href="#p" />
<use x="580" y="800" xlink:href="#p" />
<use x="620" y="800" xlink:href="#p" />
<use x="660" y="800" xlink:href="#p" />
<use x="680" y="800" xlink:href="#p" />
<use x="700" y="800" xlink:href="#p" />
<use x="720" y="800" xlink:href="#p" />
<use x="740" y="800" xlink:href="#p" />
<use x="820" y="800" xlink:href="#p" />
<use x="860" y="800" xlink:href="#p" />
<use x="100" y="820" xlink:href="#p" />
<use x="140" y="820" xlink:href="#p" />
<use x="160" y="820" xlink:href="#p" />
<use x="180" y="820" xlink:href="#p" />
<use x="220" y="820" xlink:href="#p" />
<use x="260" y="820" xlink:href="#p" />
<use x="380" y="820" xlink:href="#p" />
<use x="400" y="820" xlink:href="#p" />
<use x="420" y="820" xlink:href="#p" />
<use x="440" y="820" xlink:href="#p" />
<use x="460" y="820" xlink:href="#p" />
<use x="480" y="820" xlink:href="#p" />
<use x="520" y="820" xlink:href="#p" />
<use x="540" y="820" xlink:href="#p" />
<use x="600" y="820" xlink:href="#p" />
<use x="640" y="820" xlink:href="#p" />
<use x="660" y="820" xlink:href="#p" />
<use x="700" y="820" xlink:href="#p" />
<use x="740" y="820" xlink:href="#p" />
<use x="760" y="820" xlink:href="#p" />
<use x="780" y="820" xlink:href="#p" />
<use x="800" y="820" xlink:href="#p" />
<use x="820" y="820" xlink:href="#p" />
<use x="860" y="820" xlink:href="#p" />
<use x="880" y="820" xlink:href="#p" />
<use x="900" y="820" xlink:href="#p" />
<use x="100" y="840" xlink:href="#p" />
<use x="140" y="840" xlink:href="#p" />
<use x="160" y="840" xlink:href="#p" />
<use x="180" y="840" xlink:href="#p" />
<use x="220" y="840" xlink:href="#p" />
<use x="280" y="840" xlink:href="#p" />
<use x="300" y="840" xlink:href="#p" />
<use x="320" y="840" xlink:href="#p" />
<use x="360" y="840" xlink:href="#p" />
<use x="380" y="840" xlink:href="#p" />
<use x="400" y="840" xlink:href="#p" />
<use x="500" y="840" xlink:href="#p" />
<use x="560" y="840" xlink:href="#p" />
<use x="620" y="840" xlink:href="#p" />
<use x="800" y="840" xlink:href="#p" />
<use x="840" y="840" xlink:href="#p" />
<use x="880" y="840" xlink:href="#p" />
<use x="100" y="860" xlink:href="#p" />
<use x="140" y="860" xlink:href="#p" />
<use x="160" y="860" xlink:href="#p" />
<use x="180" y="860" xlink:href="#p" />
<use x="220" y="860" xlink:href="#p" />
<use x="280" y="860" xlink:href="#p" />
<use x="320" y="860" xlink:href="#p" />
<use x="340" y="860" xlink:href="#p" />
<use x="380" y="860" xlink:href="#p" />
<use x="400" y="860" xlink:href="#p" />
<use x="420" y="860" xlink:href="#p" />
<use x="440" y="860" xlink:href="#p" />
<use x="480" y="860" xlink:href="#p" />
<use x="540" y="860" xlink:href="#p" />
<use x="560" y="860" xlink:href="#p" />
<use x="660" y="860" xlink:href="#p" />
<use x="680" y="860" xlink:href="#p" />
<use x="740" y="860" xlink:href="#p" />
<use x="760" y="860" xlink:href="#p" />
<use x="840" y="860" xlink:href="#p" />
<use x="860" y="860" xlink:href="#p" />
<use x="880" y="860" xlink:href="#p" />
<use x="900" y="860" xlink:href="#p" />
<use x="100" y="880" xlink:href="#p" />
<use x="220" y="880" xlink:href="#p" />
<use x="320" y="880" xlink:href="#p" />
<use x="340" y="880" xlink:href="#p" />
<use x="380" y="880" xlink:href="#p" />
<use x="440" y="880" xlink:href="#p" />
<use x="540" y="880" xlink:href="#p" />
<use x="580" y="880" xlink:href="#p" />
<use x="600" y="880" xlink:href="#p" />
<use x="640" y="880" xlink:href="#p" />
<use x="660" y="880" xlink:href="#p" />
<use x="680" y="880" xlink:href="#p" />
<use x="700" y="880" xlink:href="#p" />
<use x="720" y="880" xlink:href="#p" />
<use x="760" y="880" xlink:href="#p" />
<use x="800" y="880" xlink:href="#p" />
<use x="840" y="880" xlink:href="#p" />
<use x="880" y="880" xlink:href="#p" />
<use x="900" y="880" xlink:href="#p" />
<use x="100" y="900" xlink:href="#p" />
<use x="120" y="900" xlink:href="#p" />
<use x="140" y="900" xlink:href="#p" />
<use x="160" y="900" xlink:href="#p" />
<use x="180" y="900" xlink:href="#p" />
<use x="200" y="900" xlink:href="#p" />
<use x="220" y="900" xlink:href="#p" />
<use x="300" y="900" xlink:href="#p" />
<use x="320" y="900" xlink:href="#p" />
<use x="360" y="900" xlink:href="#p" />
<use x="440" y="900" xlink:href="#p" />
<use x="460" y="900" xlink:href="#p" />
<use x="480" y="900" xlink:href="#p" />
<use x="560" y="900" xlink:href="#p" />
<use x="600" y="900" xlink:href="#p" />
<use x="640" y="900" xlink:href="#p" />
<use x="680" y="900" xlink:href="#p" />
<use x="720" y="900" xlink:href="#p" />
<use x="740" y="900" xlink:href="#p" />
<use x="760" y="900" xlink:href="#p" />
<use x="800" y="900" xlink:href="#p" />
<use x="820" y="900" xlink:href="#p" />
<use x="840" y="900" xlink:href="#p" />
<use x="860" y="900" xlink:href="#p" />
<use x="880" y="900" xlink:href="#p" />
</g>
</svg>