<?xml version="1.0" encoding="utf-8"?>
<!-- Generator: Adobe Illustrator 16.0.0, SVG Export Plug-In . SVG Version: 6.00 Build 0)  -->
<!DOCTYPE svg PUBLIC "-//W3C//DTD SVG 1.1//EN" "http://www.w3.org/Graphics/SVG/1.1/DTD/svg11.dtd">
<svg version="1.1" id="Calque_0_copie_2_xA0_Image_1_"
	 xmlns="http://www.w3.org/2000/svg" xmlns:xlink="http://www.w3.org/1999/xlink" x="0px" y="0px" width="168px" height="153px"
	 viewBox="0 0 168 153" enable-background="new 0 0 168 153" xml:space="preserve">
<g>
	<g>
		<path fill-rule="evenodd" clip-rule="evenodd" fill="#0E0E0E" d="M35.688,97.185c1.772-8.11,0.007-15.769,1.429-23.375 c-3.433-0.247-5.883-2.063-8.118-4.156c-0.995-0.933-1.405-2.407-0.936-3.686c0.491-1.336,1.812-2.121,3.241-1.738 c2.645,0.708,6.669-2.485,7.594,4.077c3.211-7.205,5.901-13.153,8.509-19.137c0.994-2.282,2.31-3.304,5.075-3.654 c21.529-2.73,43.002-2.755,64.536-0.002c3.048,0.39,4.377,1.553,5.42,4.021c2.184,5.166,4.474,10.287,6.883,15.802 c3.592-1.721,7.285-1.076,10.91-1.117c1.158,5.989-0.143,7.602-8.386,10.467c1.731,4.037,1.09,8.34,1.388,12.573 c0.23,3.284-1.914,7.304,2.584,9.688c0.637,0.338,0.553,2.739-0.248,4.058c-2.787-0.323-0.429-2.678-2.166-3.819 C101.31,97.185,68.717,97.185,35.688,97.185z M126.518,70.063c-1.099-6.519-3.904-11.75-6.365-17.153 c-1.445-3.176-3.557-4.536-6.835-4.757c-19.1-1.289-38.196-1.381-57.287,0.119c-1.945,0.152-3.945,0.194-5.12,2.354 c-3.306,6.073-6.858,12.028-7.975,19.428C70.741,69.1,98.316,69.101,126.518,70.063z M111.082,85.163 c-0.571-2.631-2.521-1.952-3.979-1.956c-14.793-0.04-29.587-0.051-44.381,0.018c-1.454,0.006-3.976-0.971-4,1.514 c-0.025,2.593,2.528,1.472,3.937,1.479c14.627,0.08,29.255,0.063,43.882,0.026C107.968,86.24,109.555,86.785,111.082,85.163z M53.748,83.568c-4.708,0-9.381,0-14.388,0c-0.007,3.218-0.525,6.263,0.387,9.167c4.797,0,9.335,0,14.001,0 C53.748,89.54,53.748,86.748,53.748,83.568z M116.006,83.42c0,3.293,0,6.342,0,9.492c4.698,0,9.1,0,13.709,0 c0-3.271,0-6.313,0-9.492C125.015,83.42,120.605,83.42,116.006,83.42z M58.223,91.09c3.267,2.887,49.878,2.775,53.017,0 C93.495,91.09,76.105,91.09,58.223,91.09z M130.797,66.438c-0.59,0.657-0.961,1.354,0,2.035 C130.797,67.668,130.797,67.053,130.797,66.438z M116.324,100.837c-7.645-0.676-8.824,0.146-9.455,5.948 c-4.358-2.117-9.002-0.983-13.499-1.137c-7.972-0.272-15.961,0.008-23.943,0.033c-6.505,0.021-11.077,4.494-11.166,10.914 c-0.018,1.303,0.334,2.673-0.572,4.017c-5.204,0-10.489,0-16.034,0c-1.302-4.641-0.119-9.31-0.792-14.256 c-2.223-0.791-5.819-0.854-4.156-5.441c2.687-0.993,6.002-0.203,9.231-0.384c3.271-0.183,6.631,0.532,9.658-1.515 c0.742-0.502,2.042-0.696,2.899-0.431c13.028,4.035,26.381,1.053,39.552,1.868c3.917,0.243,7.896,0.555,11.684-1.505 C111.652,97.906,113.935,98.415,116.324,100.837z M53.807,105.122c0.08,2.841,1.67,4.221,4.436,4.129 c2.771-0.091,4.23-1.6,4.165-4.468c-0.067-2.94-1.901-4.32-4.475-4.232C55.365,100.639,53.525,102.051,53.807,105.122z M128.703,106.063c0,4.96,0,9.566,0,14.44 c-5.596,0-10.843,0-16.18,0c-2.237-3.252,1.79-8.02-3.018-10.637c6.912-1.935,7.26-2.518,5.63-9.197c5.925,0,11.769,0,17.563,0 C134.17,104.518,132.363,105.973,128.703,106.063z"/>
	</g>
</g>
</svg>
