<?xml version="1.0" encoding="utf-8"?>
<!-- Generator: Adobe Illustrator 16.0.0, SVG Export Plug-In . SVG Version: 6.00 Build 0)  -->
<!DOCTYPE svg PUBLIC "-//W3C//DTD SVG 1.1//EN" "http://www.w3.org/Graphics/SVG/1.1/DTD/svg11.dtd">
<svg version="1.1" id="Calque_0_copie_4_xA0_Image_1_"
	 xmlns="http://www.w3.org/2000/svg" xmlns:xlink="http://www.w3.org/1999/xlink" x="0px" y="0px" width="168px" height="153px"
	 viewBox="0 0 168 153" enable-background="new 0 0 168 153" xml:space="preserve">
<g>
	<g>
		<path fill-rule="evenodd" clip-rule="evenodd" d="M59.17,134.967c-0.059-0.66-0.269-1.349-0.152-1.977
			c0.996-5.352-0.892-7.342-6.525-6.74c-4.775,0.51-7.577-2.658-7.586-7.56c-0.04-21.129-0.032-42.257-0.006-63.386
			c0.006-5.036,2.732-7.724,7.913-8.216c8.589-0.815,17.198-0.898,25.814-0.884c5.348,0.01,6.778-1.429,5.267-6.535
			c-2.008-6.782-7.097-11.748-11.712-16.785c-1.916-2.091-4.953-1.022-7.124,0.968c-1.342,1.23-2.908,2.198-4.107,0.151
			c-0.903-1.542,1.008-2.097,1.884-2.702c1.858-1.283,3.221-3.501,5.878-3.416c12.968-0.845,25.95-0.138,38.913-0.371
			c3.114-0.159,5.932,0.569,8.205,2.855c1.089,1.096,2.174,2.252,1.128,3.898c-0.925,1.456-2.384,1.666-3.97,1.312
			c-2.599-0.58-5.262-3.266-7.832-0.433c-4.211,4.641-8.999,8.993-9.811,15.787c-0.307,2.573,0.803,3.697,3.352,3.7
			c4.66,0.007,9.321,0.091,13.979-0.016c4.201-0.096,8.283,0.641,12.379,1.359c3.113,0.548,5.666,1.914,6.943,5.021c0,24,0,48,0,72
			c-1.254,2.801-3.359,4.408-6.482,4.304c-3.33-0.111-5.268,1.04-5.303,4.706c-0.015,1.602-0.396,3.354-2.639,3.468
			c-1.161,0.012-2.334-0.107-3.477,0.029c-2.959,0.354-4.383-0.988-4.414-3.864c-0.031-2.811-1.198-4.265-4.188-4.256
			c-10.925,0.032-21.852,0.106-32.775-0.025c-5.024-0.061-4.034,3.751-4.745,6.556c-0.22,0.561-0.574,1.017-1.058,1.373
			C64.326,135.446,61.718,135.944,59.17,134.967z"/>
		<path fill-rule="evenodd" clip-rule="evenodd" fill="#232323" d="M118.049,135.022c-0.087,0.322-0.104,0.648-0.049,0.978
			c-2.666,0-5.334,0-8,0c0.121-9.336,0.121-9.336-9.074-9.336c-9.103,0-18.219,0.287-27.304-0.119
			c-4.706-0.21-6.779,0.928-5.882,5.84c0.152,0.834,0.493,2.018-0.783,2.545c-0.313-11.188-0.505-8.96,8.699-9.074
			c10.422-0.131,20.848-0.025,31.271-0.033c2.057-0.001,4.497-0.06,4.029,2.863C109.983,134.771,113.216,135.681,118.049,135.022z"
			/>
		<path fill-rule="evenodd" clip-rule="evenodd" fill="#070707" d="M109,17c0.104,0.296,0.182,0.599,0.231,0.908
			C95.726,17.9,82.22,17.893,68.714,17.886C68.727,17.563,68.823,17.269,69,17C82.333,17,95.666,17,109,17z"/>
		<path fill-rule="evenodd" clip-rule="evenodd" fill="#272727" d="M66.934,134.962c0.022,0.346,0.044,0.692,0.066,1.038
			c-2.667,0-5.333,0-8,0c0.057-0.345,0.114-0.688,0.17-1.033C61.758,134.966,64.346,134.964,66.934,134.962z"/>
		<path fill-rule="evenodd" clip-rule="evenodd" fill="#FEFEFE" d="M88.151,94.008c-10.155,0-20.316-0.205-30.461,0.104
			c-3.925,0.12-4.742-1.18-4.563-4.782c0.296-5.979,0.2-11.985,0.027-17.974c-0.078-2.714,0.582-3.754,3.544-3.737
			c21.142,0.122,42.284,0.095,63.426,0.024c2.417-0.008,3.636,0.35,3.542,3.233c-0.215,6.652-0.202,13.32-0.004,19.973
			c0.084,2.854-1.146,3.225-3.549,3.202C109.461,93.952,98.806,94.008,88.151,94.008z"/>
		<path fill-rule="evenodd" clip-rule="evenodd" fill="#FEFEFE" d="M55.651,56.286c22.582,0,45.164,0,67.746,0
			c-0.002,0.337-0.004,0.675-0.006,1.012c-22.593,0-45.186,0-67.779,0C55.625,56.961,55.638,56.623,55.651,56.286z"/>
		<path fill-rule="evenodd" clip-rule="evenodd" fill="#2F2F2F" d="M87.75,115.937c-3.804,0-7.608,0.023-11.412-0.012
			c-1.455-0.013-3.239,0.221-3.147-2.063c0.077-1.909,1.629-1.779,2.938-1.782c7.938-0.017,15.877-0.017,23.815,0.001
			c1.316,0.003,2.849-0.095,2.896,1.821c0.059,2.304-1.754,2.003-3.183,2.02C95.688,115.966,91.719,115.937,87.75,115.937z"/>
		<path fill-rule="evenodd" clip-rule="evenodd" fill="#F9F9F9" d="M80.818,22.812c4.416,0,8.366-0.018,12.316,0.007
			c2.508,0.015,3.32,1.032,1.855,3.311c-0.8,1.243-1.461,2.598-2.391,3.733c-2.908,3.556-5.453,3.37-8.08-0.492
			c-0.925-1.361-1.855-2.722-2.723-4.119C81.475,24.733,81.328,24.108,80.818,22.812z"/>
		<path fill-rule="evenodd" clip-rule="evenodd" fill="#C7C7C7" d="M63.966,116.629c-1.814-0.291-4.884,0.656-4.834-1.843
			c0.045-2.276,3.091-1.603,4.959-1.66c1.767-0.056,4.618-0.347,4.639,1.518C68.759,117.371,65.768,116.288,63.966,116.629z"/>
		<path fill-rule="evenodd" clip-rule="evenodd" fill="#C6C6C6" d="M113.208,113.077c1.335,0.386,3.844-0.867,3.834,1.604
			c-0.013,3.199-2.899,1.652-4.528,1.834c-1.653,0.186-4.492,0.531-4.301-1.732C108.402,112.55,111.288,113.239,113.208,113.077z"/>
		<path fill-rule="evenodd" clip-rule="evenodd" fill="#464646" d="M101.176,117.746c-9.025,0-18.05,0-27.075,0
			c-0.001-0.141-0.003-0.282-0.005-0.424c9.025,0,18.049,0,27.074,0C101.172,117.464,101.174,117.605,101.176,117.746z"/>
	</g>
</g>
</svg>
