<?xml version="1.0" encoding="utf-8"?>
<!-- Generator: Adobe Illustrator 16.0.0, SVG Export Plug-In . SVG Version: 6.00 Build 0)  -->
<!DOCTYPE svg PUBLIC "-//W3C//DTD SVG 1.1//EN" "http://www.w3.org/Graphics/SVG/1.1/DTD/svg11.dtd">
<svg version="1.1" id="Calque_0_copie_xA0_Image_1_"
	 xmlns="http://www.w3.org/2000/svg" xmlns:xlink="http://www.w3.org/1999/xlink" x="0px" y="0px" width="168px" height="153px"
	 viewBox="0 0 168 153" enable-background="new 0 0 168 153" xml:space="preserve">
<g>
	<g>
		<path fill-rule="evenodd" clip-rule="evenodd" d="M87.513,103.753c-3.538,4.286-6.872,8.324-10.206,12.362 c-0.686-0.438-1.372-0.877-2.058-1.315c1.801-3.688,3.365-7.519,5.459-11.031c3.045-5.108,4.786-10.024,1.156-15.655 c-0.559-0.866,0.078-3.121,0.899-4.14c2.286-2.838,5.326-5.11,7.37-8.087c1.871-2.726,2.83-6.078,3.533-9.949 c-9.5,5.948-17.019,1.441-24.684-1.89c-0.003-0.496-0.006-0.992-0.009-1.489c3.165-0.438,6.458-0.475,9.454-1.438 c2.615-0.841,5.272-2.337,7.233-4.241c3.191-3.101,5.523-7.102,8.779-10.117c4.403-4.079,8.678-2.783,9.973,2.94 c1.502,6.626,2.602,13.357,3.552,20.09c0.755,5.355-0.6,10.028-4.919,13.879c-3.453,3.079-6.442,6.719-9.364,10.331 c-1.042,1.288-1.618,3.188-1.812,4.876c-0.297,2.585-0.078,5.229-0.078,8.786C89.887,105.924,88.637,104.78,87.513,103.753z M52.604,83.174c12.135-0.066,22.265,9.996,22.36,22.209 c0.093,11.994-10.17,22.416-22.173,22.517c-11.893,0.1-22.41-10.371-22.43-22.333C30.342,93.451,40.484,83.24,52.604,83.174z M52.464,122.095c9.293,0.071,16.984-7.246,17.188-16.352c0.201-8.995-7.557-16.962-16.663-17.109 c-9.384-0.152-17.213,7.655-17.115,17.069C35.968,114.719,43.363,122.025,52.464,122.095z M116.93,83.18c12.043,0.009,22.203,10.306,22.123,22.424 c-0.08,12.054-10.553,22.491-22.387,22.31c-12.131-0.187-22.189-10.462-22.098-22.573C94.662,93.063,104.644,83.171,116.93,83.18z M116.705,122.087c9.358,0.002,16.945-7.35,17.059-16.53c0.112-9.02-7.708-16.864-16.87-16.925 c-9.177-0.06-16.944,7.607-16.958,16.74C99.922,114.643,107.389,122.085,116.705,122.087z M97.773,25.884c4.055-0.096,7.379,3.206,7.598,7.544 c0.223,4.442-3.096,8.475-7.132,8.664c-3.822,0.179-7.31-3.4-7.505-7.703C90.518,29.645,93.549,25.982,97.773,25.884z"/>
	</g>
</g>
</svg>
