<?xml version="1.0" encoding="utf-8"?>
<!-- Generator: Adobe Illustrator 16.0.0, SVG Export Plug-In . SVG Version: 6.00 Build 0)  -->
<!DOCTYPE svg PUBLIC "-//W3C//DTD SVG 1.1//EN" "http://www.w3.org/Graphics/SVG/1.1/DTD/svg11.dtd">
<svg version="1.1" id="Calque_0_copie_3_xA0_Image_1_"
	 xmlns="http://www.w3.org/2000/svg" xmlns:xlink="http://www.w3.org/1999/xlink" x="0px" y="0px" width="168px" height="153px"
	 viewBox="0 0 168 153" enable-background="new 0 0 168 153" xml:space="preserve">
<g>
	<g>
		<path fill-rule="evenodd" clip-rule="evenodd" d="M103.027,83.55c-1.147-3.71-2.295-7.42-3.441-11.129 c-0.179-0.012-0.357-0.023-0.537-0.035c-0.673,17.489-1.347,34.979-2.021,52.469c-0.608,0.191-1.218,0.382-1.827,0.573 c-3.313-7.941-6.627-15.884-10.36-24.836c-3.157,11.004-6.043,21.064-8.988,31.332c-1.782-0.456-3.171-0.811-5.087-1.301 c0.801-19.656,1.604-39.332,2.405-59.008c-0.497-0.069-0.993-0.14-1.49-0.209c-3.415,3.981-6.829,7.964-10.243,11.945 c-0.587-0.286-1.175-0.572-1.763-0.858c0.35-1.91,0.38-3.954,1.11-5.706c2.042-4.902,4.586-9.601,6.514-14.542 c1.293-3.315,2.362-6.872,2.626-10.389c0.234-3.111,1.355-4.729,4.044-6.072c7.985-3.991,16.241-4.865,24.5-1.668 c2.764,1.07,5.796,3.624,6.959,6.268c4.79,10.893,3.025,21.881-0.561,32.69C104.254,83.233,103.641,83.392,103.027,83.55z M94.119,31.134c-0.063,4.806-3.781,8.986-8.082,9.089 c-4.374,0.104-8.312-4.366-8.261-9.378c0.054-5.39,3.622-9.344,8.298-9.199C90.867,21.794,94.19,25.714,94.119,31.134z"/>
	</g>
</g>
</svg>
